<?xml version="1.0" encoding="utf-8"?>
<svg viewBox="0 0 500 500" xmlns="http://www.w3.org/2000/svg">
  <path d="M 232.397 480.245 C 235.569 481.195 236.998 481.303 240.552 481.668 C 244.105 482.034 247.845 482.358 249.933 482.358 C 282.17 482.358 312.87 475.841 340.798 464.039 C 368.726 452.237 393.88 435.151 415.024 414.011 C 436.191 392.895 453.311 367.763 465.149 339.851 C 476.988 311.938 483.546 281.246 483.588 249.01 C 483.631 216.774 477.154 186.081 465.389 158.169 C 453.624 130.257 436.571 105.126 415.459 84.01 C 394.371 62.871 369.262 45.785 341.365 33.983 C 313.469 22.181 282.786 15.664 250.549 15.664 C 218.313 15.664 187.612 22.181 159.684 33.983 C 131.756 45.785 106.602 62.872 85.458 84.011 C 64.291 105.127 47.171 130.259 35.332 158.172 C 23.494 186.084 16.937 216.776 16.894 249.012 C 16.852 281.249 23.328 311.941 35.093 339.853 C 46.858 367.765 63.911 392.897 85.023 414.012 C 90.148 419.148 98.589 426.057 106.636 432.328 C 114.683 438.6 121.814 443.189 127.807 446.617 L 145.665 405.061 L 150.622 374.95 L 151.589 366.283 L 152.556 357.615 C 148.034 350.013 144.266 342.285 141.251 334.432 C 138.237 326.579 135.976 318.6 134.468 310.496 C 133.22 303.784 132.679 297.015 132.847 290.19 C 133.014 283.365 133.89 276.484 135.473 269.546 C 135.957 267.425 139.193 263.485 145.18 257.725 C 151.168 251.966 159.907 244.387 171.398 234.989 C 172.52 234.072 173.311 226.823 173.772 213.243 C 174.232 199.662 174.363 179.751 174.162 153.508 C 174.151 152.015 174.689 146.6 175.778 137.262 C 176.866 127.925 178.505 114.665 180.694 97.484 C 181.471 91.388 183.471 86.6 186.695 83.12 C 189.919 79.64 194.367 77.468 200.038 76.604 C 205.301 75.802 209.231 77.725 211.827 82.373 C 214.423 87.021 215.685 94.393 215.614 104.491 C 215.549 113.823 215.223 123.146 214.636 132.46 C 214.05 141.774 213.204 151.078 212.097 160.374 C 211.93 161.781 212.286 166.483 213.165 174.481 C 214.044 182.478 215.447 193.771 217.373 208.359 C 217.717 210.959 219.039 211.631 221.342 210.375 C 223.645 209.119 226.927 205.934 231.19 200.822 C 234.295 197.098 238.468 195.341 243.39 195.801 C 248.312 196.262 253.982 198.94 260.081 204.088 C 263.461 206.94 264.256 210.461 264.343 214.429 C 264.429 218.396 263.807 222.811 264.352 227.452 C 264.456 228.333 265.775 229.339 267.352 229.724 C 268.928 230.108 270.761 229.87 271.89 228.262 C 275.615 222.958 279.847 220.131 283.701 218.881 C 287.555 217.631 291.031 217.959 293.243 218.966 C 298.883 221.533 302.897 225.894 305.032 231.923 C 307.168 237.953 307.425 245.65 305.553 254.891 C 305.327 256.007 305.423 256.775 306.093 257.32 C 306.763 257.864 308.006 258.185 310.075 258.409 L 324.269 243.335 L 338.464 228.261 L 355.296 205.023 L 372.128 181.785 C 374.556 177.765 377.362 175.002 380.544 173.494 C 383.726 171.987 387.285 171.735 391.221 172.74 C 394.22 173.505 396.516 175.228 398.107 177.908 C 399.698 180.588 400.585 184.225 400.768 188.819 C 400.893 191.975 396.895 200.818 388.772 215.347 C 380.649 229.876 368.401 250.092 352.03 275.994 C 342.349 291.311 332.756 306.683 323.251 322.11 C 313.746 337.537 304.33 353.02 295.002 368.557 C 295.002 368.557 291.82 372.451 285.455 380.239 C 279.091 388.027 269.544 399.709 256.815 415.285 C 256.815 415.285 255.462 417.674 252.205 425.391 C 248.947 433.109 240.017 458.928 232.397 480.245 Z" style="stroke: rgb(255, 255, 255); stroke-linecap: round; stroke-width: 3px; fill-rule: nonzero;">
    <desc>coub.ru</desc>
    <title>COUB</title>
  </path>
</svg>